<?xml version="1.0" encoding="utf-8"?>
<svg xmlns="http://www.w3.org/2000/svg" xmlns:xlink="http://www.w3.org/1999/xlink" xmlns:svgjs="http://svgjs.com/svgjs" version="1.1" width="284" height="62">
<defs id="SvgjsDefs1001"/>
<svg id="SvgjsSvg1002" width="2" height="0" style="overflow: hidden; top: -100%; left: -100%; position: absolute; opacity: 0">
<polyline id="SvgjsPolyline1003" points="80,46 80,55"/>
<path id="SvgjsPath1004" d="M0 0 "/>
</svg>
<polyline id="SvgjsPolyline1006" points="1,1.5 41,1.5 1,1.5 1,61.5 1,61.5 281,61.5 281,61.5 271,51.5 271,51.5 241,51.5 241,51.5 241,1.5 241,1.5 231,1.5 231,1.5 231,51.5 226,51.5 221,51.5 221,51.5 221,1.5 221,1.5 211,1.5 211,1.5 191,21.5 191,21.5 171,1.5 171,1.5 161,1.5 161,1.5 161,51.5 161,51.5 171,51.5 171,51.5 171,16.5 171,16.5 191,36.5 191,36.5 211,16.5 211,16.5 211,51.5 161,51.5 141,51.5 141,51.5 131,51.5 131,51.5 131,11.5 131,11.5 151,11.5 151,11.5 151,1.5 151,1.5 101,1.5 101,1.5 101,11.5 101,11.5 121,11.5 121,11.5 121,51.5 121,51.5 91,51.5 91,51.5 91,1.5 91,1.5 81,1.5 81,1.5 81,26.5 81,26.5 61,26.5 61,26.5 61,51.5 61,51.5 51,51.5 51,51.5 51,1.5 51,1.5 61,1.5 61,1.5 61,36.5 61,36.5 81,36.5 81,36.5 81,51.5 11,51.5 11,36.5 11,36.5 41,36.5 41,36.5 41,26.5 41,26.5 11,26.5 11,26.5 11,11.5 11,11.5 41,11.5 41,11.5 41,1" fill="#ffdd59" stroke="#485460" stroke-width="1"/>
<polyline id="SvgjsPolyline1007" points="161.5,50 170.5,50" fill="#ffdd59" stroke="#ffdd59" stroke-width="6"/>
<polyline id="SvgjsPolyline1008" points="51.5,50 60.5,50" fill="#ffdd59" stroke="#ffdd59" stroke-width="6"/>
<polyline id="SvgjsPolyline1009" points="61,27 61,36" fill="#ffdd59" stroke="#ffdd59" stroke-width="6"/>
</svg>
