<?xml version="1.0" encoding="UTF-8"?>
<svg id="Layer_1" data-name="Layer 1" xmlns="http://www.w3.org/2000/svg" viewBox="25 22.5 135 135">
  <path d="M161.27,38.07v103.86c0,8.43-7.05,15.33-15.67,15.33H34.4c-8.62,0-15.67-6.9-15.67-15.33V38.07c0-8.43,7.05-15.33,15.67-15.33h111.2c8.62,0,15.67,6.9,15.67,15.33Z" style="fill: #3b509f;"/>
  <g>
    <path d="M65.73,50.93c-2.73.31-5.17-.35-7.24-1.99-2.06-1.65-3.26-3.87-3.57-6.61-.05-.4-.08-.81-.08-1.25,0-2.23.69-4.24,2.08-5.97,1.62-2.06,3.85-3.26,6.6-3.58,2.75-.31,5.18.37,7.23,2,2.06,1.62,3.26,3.85,3.57,6.59.05.43.07.85.08,1.26,0,2.23-.69,4.25-2.07,5.98-1.64,2.06-3.86,3.26-6.6,3.57Z" style="fill: #ecede6;"/>
    <path d="M74.41,41.37c0,2.23-.69,4.25-2.07,5.98-1.64,2.06-3.86,3.26-6.6,3.57-2.73.31-5.17-.35-7.24-1.99-2.06-1.65-3.26-3.87-3.57-6.61-.05-.4-.08-.81-.08-1.25,0-2.23.69-4.24,2.08-5.97,1.62-2.06,3.85-3.26,6.6-3.58,2.75-.31,5.18.37,7.23,2,2.06,1.62,3.26,3.85,3.57,6.59.05.43.07.85.08,1.26Z" style="fill: #ecede6;"/>
    <path d="M69.09,127.64c-1.29,2.67-4.03,4.59-6.98,4.9-3.98.4-7.57-2.48-10.26-5.02-3.26-3.09-6.17-6.65-8.63-10.6-4.81-7.68-7.75-16.55-8.51-25.64-.59-7.15.16-14.15,2.21-20.77.19-.54.38-1.1.58-1.66,2.24-6.52,5.04-14.63,12.28-14.75h.07c2.3,0,4.52,1.01,6.09,2.79,1.54,1.74,2.26,4.01,1.98,6.24l-.02.15c-.23,1.77-1,3.41-1.83,5.15l-.35.75c-4.11,8.41-5.21,17.92-3.1,26.78,1.53,6.43,4.86,12.54,9.62,17.68.85.91,1.92,1.76,2.96,2.57,1.48,1.17,3,2.36,3.79,3.71.63,1.08.95,2.45.95,3.85s-.29,2.7-.86,3.89Z" style="fill: #ecede6;"/>
    <path d="M69.95,123.75c0,1.33-.29,2.7-.86,3.89-1.29,2.67-4.03,4.59-6.98,4.9-3.98.4-7.57-2.48-10.26-5.02-3.26-3.09-6.17-6.65-8.63-10.6-4.81-7.68-7.75-16.55-8.51-25.64-.59-7.15.16-14.15,2.21-20.77.19-.54.38-1.1.58-1.66,2.24-6.52,5.04-14.63,12.28-14.75h.07c2.3,0,4.52,1.01,6.09,2.79,1.54,1.74,2.26,4.01,1.98,6.24l-.02.15c-.23,1.77-1,3.41-1.83,5.15l-.35.75c-4.11,8.41-5.21,17.92-3.1,26.78,1.53,6.43,4.86,12.54,9.62,17.68.85.91,1.92,1.76,2.96,2.57,1.48,1.17,3,2.36,3.79,3.71.63,1.08.95,2.45.95,3.85Z" style="fill: #ecede6;"/>
    <path d="M82.53,85.54c0,4.74,1.37,8.39,4.12,11.17,2.74,2.77,6.3,4.12,10.98,4.12l14-.04c.1,0,.23,0,.43.02,2.23.06,4.15.86,5.68,2.38,1.62,1.61,2.46,3.64,2.47,6.03,0,2.41-.82,4.45-2.45,6.06-1.52,1.53-3.42,2.34-5.73,2.43-.09,0-.18,0-.27,0-.03,0-.05.02-.09,0l-13.97.05h-.12c-4.56,0-8.84-.79-12.71-2.35-3.91-1.56-7.33-3.8-10.17-6.65-2.86-2.91-5.1-6.36-6.69-10.24-1.57-3.91-2.38-8.26-2.4-12.92v-.17c0-4.61.79-8.92,2.33-12.79,1.56-3.89,3.78-7.35,6.58-10.27,2.86-2.89,6.27-5.19,10.17-6.79,3.9-1.65,8.22-2.49,12.8-2.51l46.65-.15-16.82,16.99-29.78.09c-4.63.02-8.22,1.41-10.97,4.26-2.72,2.85-4.04,6.54-4.04,11.26Z" style="fill: #ecede6;"/>
    <path d="M86.57,74.28c-2.72,2.85-4.04,6.54-4.04,11.26,0,4.74,1.37,8.39,4.12,11.17,2.74,2.77,6.3,4.12,10.98,4.12l14-.04c.1,0,.23,0,.43.02,2.23.06,4.15.86,5.68,2.38,1.62,1.61,2.46,3.64,2.47,6.03,0,2.41-.82,4.45-2.45,6.06-1.52,1.53-3.42,2.34-5.73,2.43-.09,0-.18,0-.27,0-.03,0-.05.02-.09,0l-13.97.05h-.12c-4.56,0-8.84-.79-12.71-2.35-3.91-1.56-7.33-3.8-10.17-6.65-2.86-2.91-5.1-6.36-6.69-10.24-1.57-3.91-2.38-8.26-2.4-12.92v-.17c0-4.61.79-8.92,2.33-12.79,1.56-3.89,3.78-7.35,6.58-10.27,2.86-2.89,6.27-5.19,10.17-6.79,3.9-1.65,8.22-2.49,12.8-2.51l46.65-.15-16.82,16.99-29.78.09c-4.63.02-8.22,1.41-10.97,4.26Z" style="fill: #ecede6;"/>
    <path d="M113.62,141.42l-46.65.15,16.8-16.99,29.79-.11c4.61-.02,8.19-1.4,10.95-4.24,2.73-2.87,4.06-6.55,4.06-11.28-.02-4.71-1.37-8.36-4.14-11.15-2.73-2.78-6.29-4.13-10.97-4.13l-13.77.05c-.13,0-.25,0-.38,0-2.41-.02-4.48-.79-6.12-2.39-1.62-1.59-2.45-3.63-2.47-6.06-.02-2.4.8-4.44,2.43-6.04,1.57-1.58,3.57-2.4,5.91-2.45l14.46-.03c4.55,0,8.81.78,12.68,2.31,3.94,1.58,7.37,3.83,10.21,6.69,2.81,2.85,5.04,6.28,6.65,10.22,1.58,3.91,2.4,8.27,2.42,12.92,0,4.65-.78,9-2.36,12.96-1.53,3.91-3.75,7.36-6.57,10.25-2.85,2.9-6.26,5.2-10.17,6.82-3.88,1.63-8.19,2.48-12.78,2.5Z" style="fill: #ecede6;"/>
    <path d="M145.49,108.9c0,4.65-.78,9-2.36,12.96-1.53,3.91-3.75,7.36-6.57,10.25-2.85,2.9-6.26,5.2-10.17,6.82-3.88,1.63-8.19,2.48-12.78,2.5l-46.65.15,16.8-16.99,29.79-.11c4.61-.02,8.19-1.4,10.95-4.24,2.73-2.87,4.06-6.55,4.06-11.28-.02-4.71-1.37-8.36-4.14-11.15-2.73-2.78-6.29-4.13-10.97-4.13l-13.77.05c-.13,0-.25,0-.38,0-2.41-.02-4.48-.79-6.12-2.39-1.62-1.59-2.45-3.63-2.47-6.06-.02-2.4.8-4.44,2.43-6.04,1.57-1.58,3.57-2.4,5.91-2.45l14.46-.03c4.55,0,8.81.78,12.68,2.31,3.94,1.58,7.37,3.83,10.21,6.69,2.81,2.85,5.04,6.28,6.65,10.22,1.58,3.91,2.4,8.27,2.42,12.92Z" style="fill: #ecede6;"/>
  </g>
</svg>