<?xml version="1.0" encoding="iso-8859-1"?>
<!-- Generator: Adobe Illustrator 19.0.0, SVG Export Plug-In . SVG Version: 6.00 Build 0)  -->
<svg version="1.1" id="Layer_1" xmlns="http://www.w3.org/2000/svg" xmlns:xlink="http://www.w3.org/1999/xlink" x="0px" y="0px"
	 viewBox="0 0 480 480" style="enable-background:new 0 0 480 480;" xml:space="preserve">
<path style="fill:#81BAAB;" d="M136,339.152V296h-23.48C114.592,311.608,122.672,326.424,136,339.152z"/>
<path style="fill:#EFD01B;" d="M240,16C116.48,16,16,116.48,16,240s100.48,224,224,224c123.512,0,224-100.488,224-224
	S363.512,16,240,16z M336,168h-16c-17.648,0-32-14.352-32-32s14.352-32,32-32V88h16v16c17.648,0,32,14.352,32,32h-16
	c0-8.824-7.184-16-16-16h-16c-8.824,0-16,7.176-16,16s7.176,16,16,16h16c17.648,0,32,14.352,32,32s-14.352,32-32,32v16h-16v-16
	c-17.648,0-32-14.352-32-32h16c0,8.824,7.176,16,16,16h16c8.816,0,16-7.176,16-16S344.816,168,336,168z M160,168h-16
	c-17.648,0-32-14.352-32-32s14.352-32,32-32V88h16v16c17.648,0,32,14.352,32,32h-16c0-8.824-7.184-16-16-16h-16
	c-8.824,0-16,7.176-16,16s7.176,16,16,16h16c17.648,0,32,14.352,32,32s-14.352,32-32,32v16h-16v-16c-17.648,0-32-14.352-32-32h16
	c0,8.824,7.176,16,16,16h16c8.816,0,16-7.176,16-16S168.816,168,160,168z M344,359.888V416c0,4.424-3.576,8-8,8H144
	c-4.424,0-8-3.576-8-8v-56.112C110.256,340.496,96,315.152,96,288c0-4.424,3.576-8,8-8h40h56.808H279.2H336h40c4.424,0,8,3.576,8,8
	C384,315.16,369.744,340.496,344,359.888z"/>
<path style="fill:#81BAAB;" d="M344,339.152c13.328-12.728,21.408-27.536,23.48-43.152H344V339.152z"/>
<path style="fill:#EFD01B;" d="M240,312c11.632,0,22.112-6.344,27.712-16h-55.424C217.888,305.656,228.368,312,240,312z"/>
<g>
	<path style="fill:#95D8C6;" d="M215.192,376H264.8c3.184-15.648,15.544-28.008,31.192-31.192V296H285.12
		c-6.696,18.856-24.664,32-45.128,32c-20.472,0-38.44-13.144-45.128-32H184v48.808C199.648,347.992,212.008,360.352,215.192,376z"/>
	<path style="fill:#95D8C6;" d="M312,352c0,4.424-3.576,8-8,8c-13.232,0-24,10.768-24,24c0,4.424-3.576,8-8,8h-64
		c-4.424,0-8-3.576-8-8c0-13.232-10.768-24-24-24c-4.424,0-8-3.576-8-8v-56h-16v59.992V408h176v-52.008V296h-16V352z"/>
</g>
<path d="M240,0C107.664,0,0,107.664,0,240s107.664,240,240,240s240-107.664,240-240S372.336,0,240,0z M240,464
	C116.48,464,16,363.512,16,240S116.48,16,240,16c123.512,0,224,100.48,224,224S363.512,464,240,464z"/>
<path d="M376,280h-40h-56.808H200.8H144h-40c-4.424,0-8,3.576-8,8c0,27.16,14.256,52.496,40,71.888V416c0,4.424,3.576,8,8,8h192
	c4.424,0,8-3.576,8-8v-56.112c25.744-19.392,40-44.736,40-71.888C384,283.576,380.424,280,376,280z M184,296h10.872
	c6.696,18.856,24.664,32,45.128,32c20.472,0,38.44-13.144,45.128-32H296v48.808c-15.648,3.184-28.008,15.544-31.192,31.192H215.2
	c-3.184-15.648-15.544-28.008-31.192-31.192V296H184z M267.712,296c-5.6,9.656-16.08,16-27.712,16c-11.632,0-22.112-6.344-27.712-16
	H267.712z M112.52,296H136v43.152C122.672,326.424,114.592,311.608,112.52,296z M328,408H152v-52.008V296h16v56c0,4.424,3.576,8,8,8
	c13.232,0,24,10.768,24,24c0,4.424,3.576,8,8,8h64c4.424,0,8-3.576,8-8c0-13.232,10.768-24,24-24c4.424,0,8-3.576,8-8v-56h16v59.992
	V408z M344,339.152V296h23.48C365.408,311.608,357.328,326.424,344,339.152z"/>
<path d="M160,200h-16c-8.824,0-16-7.176-16-16h-16c0,17.648,14.352,32,32,32v16h16v-16c17.648,0,32-14.352,32-32s-14.352-32-32-32
	h-16c-8.824,0-16-7.176-16-16s7.176-16,16-16h16c8.816,0,16,7.176,16,16h16c0-17.648-14.352-32-32-32V88h-16v16
	c-17.648,0-32,14.352-32,32s14.352,32,32,32h16c8.816,0,16,7.176,16,16S168.816,200,160,200z"/>
<path d="M336,200h-16c-8.824,0-16-7.176-16-16h-16c0,17.648,14.352,32,32,32v16h16v-16c17.648,0,32-14.352,32-32s-14.352-32-32-32
	h-16c-8.824,0-16-7.176-16-16s7.176-16,16-16h16c8.816,0,16,7.176,16,16h16c0-17.648-14.352-32-32-32V88h-16v16
	c-17.648,0-32,14.352-32,32s14.352,32,32,32h16c8.816,0,16,7.176,16,16S344.816,200,336,200z"/>
<g>
</g>
<g>
</g>
<g>
</g>
<g>
</g>
<g>
</g>
<g>
</g>
<g>
</g>
<g>
</g>
<g>
</g>
<g>
</g>
<g>
</g>
<g>
</g>
<g>
</g>
<g>
</g>
<g>
</g>
</svg>
