<svg xmlns="http://www.w3.org/2000/svg" xmlns:xlink="http://www.w3.org/1999/xlink" version="1.1" width="100" height="250" data-left="0" data-right="1250" data-top="0" data-bottom="440"><g data-name="page" data-interval-between-stave-lines="20" data-font-color="#121212" data-left="0" data-right="1250" data-top="0" data-bottom="440"><g data-name="pageWithoutBorder" data-left="0" data-right="1250" data-top="147.89036274598814" data-bottom="400.2731591726797"><g data-name="measures" data-left="200" data-right="1050" data-top="147.89036274598814" data-bottom="400.2731591726797" transform="translate(-15, -150)"><g data-name="additionalStaveLinesOnPageLine" data-left="232.71663028297263" data-right="282.75089018673555" data-top="280" data-bottom="280"><line data-name="additionalStaveLine" x1="32.716630282972616" y1="280" x2="82.75089018673552" y2="280" stroke="#121212" stroke-width="3.4000000000000004" stroke-linejoin="round" stroke-linecap="round" stroke-dasharray="" data-left="232.71663028297263" data-right="282.75089018673555" data-top="280" data-bottom="280"/></g><g data-name="measure" ref-ids="measure-1,measure-1-1,line-1,every-measure-including-index-0,first-measure-including-index-0,last-measure,first-or-last-measure" pointer-events="painted" data-left="200" data-right="1050" data-top="147.89036274598814" data-bottom="400.2731591726797"><g data-name="voicesWithStaveLines" data-left="203.6" data-right="1034.4" data-top="179.26" data-bottom="350.0031591726532"><g data-name="voices" data-left="203.6" data-right="1034.4" data-top="180" data-bottom="350.0031591726532"><g data-name="voicesBody" data-left="203.6" data-right="1034.4" data-top="147.89036274598814" data-bottom="400.2731591726797"><g data-name="crossStaveChord" data-left="243.1166302829726" data-right="291.50614630669" data-top="209.96036274598816" data-bottom="350.0031591726532"><g data-name="crossVoiceChordOnOneStave" data-left="243.1166302829726" data-right="291.50614630669" data-top="209.96036274598816" data-bottom="350.0031591726532"><g data-name="singleChord" ref-ids="beat-1-1-1-1,voice-1,voice-1-1,voice-1-1-1,voice-1-1-1-1,voice-in-measure-on-all-staves-1-1-1,voice-in-all-measures-and-on-all-staves-on-line-1-1" pointer-events="painted" data-left="243.1166302829726" data-right="291.50614630669" data-top="147.89036274598814" data-bottom="290.60315917265325"><g data-name="singleChordBodyParts" ref-ids="chord-1-1-1-1" pointer-events="painted" data-left="243.1166302829726" data-right="272.3508901867355" data-top="268.96036274598816" data-bottom="290.60315917265325"><g data-name="singleChordBody" data-left="243.1166302829726" data-right="272.3508901867355" data-top="268.96036274598816" data-bottom="290.60315917265325"><g data-name="noteBody" ref-ids="note-1-1-1-1-1,note-with-index-1-1-1-1-1" pointer-events="painted" data-left="243.1166302829726" data-right="272.3508901867355" data-top="268.96036274598816" data-bottom="290.60315917265325"><path d="M 0 6.4 A 4 2.6 -25 0 1 28.4 -6 A 4 2.3000000000000003 -25 0 1 0 6.4" stroke="#121212" stroke-width="0.4" stroke-linejoin="round" stroke-linecap="round" fill="#121212" fill-rule="evenodd" data-left="243.1166302829726" data-right="272.3508901867355" data-top="268.96036274598816" data-bottom="290.60315917265325" transform="translate(43.6, 280)"/></g></g></g><line data-name="stem" x1="70.75089018673552" y1="209.96036274598816" x2="70.75089018673552" y2="275.60315917265325" stroke="#121212" stroke-width="3.5999999999999996" stroke-linejoin="round" stroke-linecap="round" stroke-dasharray="" ref-ids="stem-1-1-1-1" pointer-events="painted" data-left="270.75089018673555" data-right="270.75089018673555" data-top="209.96036274598816" data-bottom="275.60315917265325"/><g data-name="noteWave" data-left="271.1508901867355" data-right="291.50614630669" data-top="209.96036274598816" data-bottom="269.96036274598816"><path d="M 13.200000000000001 59 C 17.3 47 29.6 31 9.6 15 C 9.6 15 0.4 7 0.4 -1 L 0.4 15 C 0.4 15 9.6 16 16.060000000000002 23 C 16.8 24 21.8 31 20.558 37" stroke="#121212" stroke-width="3.5999999999999996" stroke-linejoin="round" stroke-linecap="round" fill="#121212" fill-rule="evenodd" data-left="271.1508901867355" data-right="291.50614630669" data-top="209.96036274598816" data-bottom="269.96036274598816" transform="translate(70.75089018673552, 210.96036274598816)"/></g></g><g data-name="singleChord" ref-ids="beat-1-1-2-1,voice-2,voice-1-2,voice-1-1-2,voice-1-1-1-2,voice-in-measure-on-all-staves-1-1-2,voice-in-all-measures-and-on-all-staves-on-line-1-2" pointer-events="painted" data-left="243.1166302829726" data-right="272.3508901867355" data-top="268.96036274598816" data-bottom="400.2731591726797"><g data-name="singleChordBodyParts" ref-ids="chord-1-1-2-1" pointer-events="painted" data-left="243.1166302829726" data-right="272.3508901867355" data-top="268.96036274598816" data-bottom="290.60315917265325"><g data-name="singleChordBody" data-left="243.1166302829726" data-right="272.3508901867355" data-top="268.96036274598816" data-bottom="290.60315917265325"><g data-name="noteBody" ref-ids="note-1-1-2-1-1,note-with-index-1-1-2-1-1" pointer-events="painted" data-left="243.1166302829726" data-right="272.3508901867355" data-top="268.96036274598816" data-bottom="290.60315917265325"><path d="M 0 6.4 A 4 2.6 -25 0 1 28.4 -6 A 4 2.3000000000000003 -25 0 1 0 6.4" stroke="#121212" stroke-width="0.4" stroke-linejoin="round" stroke-linecap="round" fill="#121212" fill-rule="evenodd" data-left="243.1166302829726" data-right="272.3508901867355" data-top="268.96036274598816" data-bottom="290.60315917265325" transform="translate(43.6, 280)"/></g></g></g><line data-name="stem" x1="44.716630282972616" y1="283.96036274598816" x2="44.716630282972616" y2="349.60315917265325" stroke="#121212" stroke-width="3.5999999999999996" stroke-linejoin="round" stroke-linecap="round" stroke-dasharray="" ref-ids="stem-1-1-2-1" pointer-events="painted" data-left="244.71663028297263" data-right="244.71663028297263" data-top="283.96036274598816" data-bottom="349.60315917265325"/><g data-name="noteWave" data-left="245.1166302829726" data-right="265.9833313345191" data-top="293.40315917265326" data-bottom="350.0031591726532"><path d="M 19.6 -3.2 C 17.3 5.4 29.6 21.400000000000002 9.6 37.400000000000006 C 9.6 37.400000000000006 0.4 45.4 0.4 53.4 L 0.4 37.400000000000006 C 0.4 37.400000000000006 9.6 36.4 16.060000000000002 29.4 C 16.8 28.4 21.8 21.400000000000002 21.22 16.200000000000003" stroke="#121212" stroke-width="3.5999999999999996" stroke-linejoin="round" stroke-linecap="round" fill="#121212" fill-rule="evenodd" data-left="245.1166302829726" data-right="265.9833313345191" data-top="293.40315917265326" data-bottom="350.0031591726532" transform="translate(44.716630282972616, 296.60315917265325)"/></g></g></g></g></g></g></g></g><g data-name="additionalMeasureElementsOnPageLine" data-left="214.26413028297253" data-right="297.0858901867355" data-top="157.89036274598814" data-bottom="390.2731591726797"><g data-name="noteLetter" ref-ids="articulation-1-1-1-1-1" pointer-events="painted" data-left="244.4158901867355" data-right="297.0858901867355" data-top="157.89036274598814" data-bottom="197.96036274598816" transform="translate(71.12589018673552, -35.89963725401185)"><g data-name="textWithOutline" data-left="244.4158901867355" data-right="297.0858901867355" data-top="157.89036274598814" data-bottom="197.96036274598816"><path data-name="text" fill="#121212" d="M-15.50 228.82L-15.50 228.82Q-18.40 228.82-20.05 226.93Q-21.71 225.04-21.71 221.72L-21.71 221.72L-21.71 211.68Q-21.71 211.26-21.44 210.97Q-21.17 210.67-20.75 210.67L-20.75 210.67Q-20.33 210.67-20.03 210.97Q-19.74 211.26-19.74 211.68L-19.74 211.68L-19.74 221.72Q-19.74 222.69-19.45 223.88Q-19.15 225.08-18.25 225.96Q-17.35 226.84-15.50 226.84L-15.50 226.84Q-13.02 226.84-11.65 225.50Q-10.29 224.16-10.29 221.64L-10.29 221.64L-10.29 211.64Q-10.29 211.22-10.00 210.91Q-9.70 210.59-9.28 210.59L-9.28 210.59Q-8.86 210.59-8.59 210.91Q-8.32 211.22-8.32 211.64L-8.32 211.64L-8.32 227.85Q-8.32 228.27-8.59 228.55Q-8.86 228.82-9.28 228.82L-9.28 228.82Q-9.70 228.82-10.00 228.55Q-10.29 228.27-10.29 227.85L-10.29 227.85L-10.29 226.55Q-11.26 227.60-12.58 228.21Q-13.90 228.82-15.50 228.82ZM-2.56 228.82L-2.56 228.82Q-2.98 228.82-3.26 228.55Q-3.53 228.27-3.53 227.85L-3.53 227.85L-3.53 211.56Q-3.53 211.14-3.26 210.84Q-2.98 210.55-2.56 210.55L-2.56 210.55Q-2.14 210.55-1.85 210.84Q-1.55 211.14-1.55 211.56L-1.55 211.56L-1.55 212.94Q-0.59 211.85 0.76 211.22Q2.10 210.59 3.65 210.59L3.65 210.59Q6.55 210.59 8.21 212.50Q9.87 214.41 9.87 217.69L9.87 217.69L9.87 227.77Q9.87 228.19 9.60 228.48Q9.32 228.78 8.90 228.78L8.90 228.78Q8.48 228.78 8.19 228.48Q7.90 228.19 7.90 227.77L7.90 227.77L7.90 217.69Q7.90 216.72 7.60 215.55Q7.31 214.37 6.40 213.51Q5.50 212.65 3.65 212.65L3.65 212.65Q1.22 212.65-0.17 213.99Q-1.55 215.34-1.55 217.81L-1.55 217.81L-1.55 227.85Q-1.55 228.27-1.85 228.55Q-2.14 228.82-2.56 228.82ZM19.91 228.86L19.91 228.86Q19.49 228.86 19.21 228.59Q18.94 228.31 18.94 227.89L18.94 227.89L18.94 213.24L14.11 213.24Q13.69 213.24 13.40 212.92Q13.10 212.61 13.10 212.19L13.10 212.19Q13.10 211.77 13.40 211.49Q13.69 211.22 14.11 211.22L14.11 211.22L19.91 211.22Q20.37 211.22 20.66 211.49Q20.96 211.77 20.96 212.19L20.96 212.19L20.96 227.89Q20.96 228.31 20.66 228.59Q20.37 228.86 19.91 228.86ZM19.40 203.62L19.40 203.62Q18.82 203.62 18.44 203.28Q18.06 202.95 18.06 202.53L18.06 202.53L18.06 199.92Q18.06 199.50 18.44 199.15Q18.82 198.79 19.40 198.79L19.40 198.79Q19.99 198.79 20.35 199.15Q20.71 199.50 20.71 199.92L20.71 199.92L20.71 202.53Q20.71 202.95 20.35 203.28Q19.99 203.62 19.40 203.62Z" stroke="#121212" stroke-width="2.2" stroke-linecap="round" text-value="uni" data-left="249.4158901867355" data-right="292.0858901867355" data-top="162.89036274598814" data-bottom="192.96036274598816"/></g></g><g data-name="noteLetter" ref-ids="articulation-1-1-2-1-1" pointer-events="painted" data-left="214.26413028297253" data-right="275.16913028297273" data-top="362.0031591726532" data-bottom="390.2731591726797" transform="translate(44.96913028297271, 16.413159172679684)"><g data-name="textWithOutline" data-left="214.26413028297253" data-right="275.16913028297273" data-top="362.0031591726532" data-bottom="390.2731591726797"><path data-name="text" fill="#121212" d="M-18.82 368.86L-18.82 368.86Q-21.21 368.86-23.04 367.81Q-24.86 366.76-25.62 365.00L-25.62 365.00Q-25.79 364.62-25.62 364.24Q-25.45 363.86-25.07 363.70L-25.07 363.70Q-24.70 363.53-24.32 363.70Q-23.94 363.86-23.77 364.24L-23.77 364.24Q-23.23 365.46-21.90 366.15Q-20.58 366.85-18.82 366.85L-18.82 366.85Q-17.01 366.85-16.00 366.49Q-14.99 366.13-14.55 365.61Q-14.11 365.08-14.01 364.56Q-13.90 364.03-13.90 363.74L-13.90 363.74Q-13.90 363.11-14.20 362.52Q-14.49 361.93-15.46 361.41Q-16.42 360.88-18.44 360.46L-18.44 360.46Q-19.87 360.17-21.40 359.62Q-22.93 359.08-23.98 358.09Q-25.03 357.10-25.03 355.51L-25.03 355.51Q-24.99 353.36-23.23 352.00Q-21.46 350.63-18.65 350.63L-18.65 350.63Q-16.55 350.63-14.85 351.54Q-13.15 352.44-12.35 353.99L-12.35 353.99Q-12.14 354.33-12.26 354.73Q-12.39 355.13-12.73 355.34L-12.73 355.34Q-13.15 355.51-13.52 355.40Q-13.90 355.30-14.07 354.92L-14.07 354.92Q-14.53 354.08-15.67 353.38Q-16.80 352.69-18.65 352.69L-18.65 352.69Q-19.70 352.69-20.71 352.96Q-21.71 353.24-22.37 353.85Q-23.02 354.46-23.06 355.55L-23.06 355.55Q-23.06 355.80-22.85 356.32Q-22.64 356.85-21.59 357.44Q-20.54 358.03-18.06 358.53L-18.06 358.53Q-16.59 358.82-15.18 359.39Q-13.78 359.96-12.83 360.99Q-11.89 362.02-11.93 363.74L-11.93 363.74Q-11.93 364.45-12.18 365.33Q-12.43 366.22-13.15 367.01Q-13.86 367.81-15.22 368.34Q-16.59 368.86-18.82 368.86ZM-0.25 368.86L-0.25 368.86Q-3.82 368.86-5.88 366.40Q-7.94 363.95-7.94 359.75L-7.94 359.75Q-7.94 355.51-5.88 353.07Q-3.82 350.63-0.25 350.63L-0.25 350.63Q3.28 350.63 5.36 353.07Q7.43 355.51 7.43 359.75L7.43 359.75Q7.43 363.95 5.36 366.40Q3.28 368.86-0.25 368.86ZM-0.25 366.85L-0.25 366.85Q2.48 366.85 3.95 365.00Q5.42 363.15 5.42 359.75L5.42 359.75Q5.42 356.39 3.95 354.54Q2.48 352.69-0.25 352.69L-0.25 352.69Q-2.94 352.69-4.45 354.54Q-5.96 356.39-5.96 359.75L-5.96 359.75Q-5.96 363.15-4.45 365.00Q-2.94 366.85-0.25 366.85ZM12.77 368.86L12.77 368.86Q12.35 368.86 12.08 368.59Q11.80 368.32 11.80 367.90L11.80 367.90L11.80 351.60Q11.80 351.18 12.08 350.89Q12.35 350.59 12.77 350.59L12.77 350.59Q13.19 350.59 13.48 350.89Q13.78 351.18 13.78 351.60L13.78 351.60L13.78 352.99Q14.74 351.89 16.09 351.26Q17.43 350.63 18.98 350.63L18.98 350.63Q21.88 350.63 23.54 352.54Q25.20 354.46 25.20 357.73L25.20 357.73L25.20 367.81Q25.20 368.23 24.93 368.53Q24.65 368.82 24.23 368.82L24.23 368.82Q23.81 368.82 23.52 368.53Q23.23 368.23 23.23 367.81L23.23 367.81L23.23 357.73Q23.23 356.77 22.93 355.59Q22.64 354.41 21.73 353.55Q20.83 352.69 18.98 352.69L18.98 352.69Q16.55 352.69 15.16 354.04Q13.78 355.38 13.78 357.86L13.78 357.86L13.78 367.90Q13.78 368.32 13.48 368.59Q13.19 368.86 12.77 368.86Z" stroke="#121212" stroke-width="2.2" stroke-linecap="round" text-value="son" data-left="219.26413028297253" data-right="270.16913028297273" data-top="367.0031591726532" data-bottom="385.2731591726797"/></g></g></g></g><rect width="100" height="80" stroke="#FDF5E6" stroke-width="0.02" stroke-linejoin="bevel" stroke-linecap="butt" fill="none" data-left="0" data-right="200" data-top="180" data-bottom="260" transform="translate(0, 180)"/></g></g></svg>