<svg xmlns="http://www.w3.org/2000/svg" height="24px" viewBox="0 -960 960 960" width="24px" fill="#b33939"><path d="M220-464 64-620l156-156 156 156-156 156ZM360-80v-200q-61-5-121-14.5T120-320l20-80q84 23 168.5 31.5T480-360q87 0 171.5-8.5T820-400l20 80q-59 16-119 25.5T600-280v200H360ZM220-576l44-44-44-44-44 44 44 44Zm175-139q-35-35-35-85t35-85q35-35 85-35t85 35q35 35 35 85t-35 85q-35 35-85 35t-85-35Zm28.5 291.5Q400-447 400-480t23.5-56.5Q447-560 480-560t56.5 23.5Q560-513 560-480t-23.5 56.5Q513-400 480-400t-56.5-23.5Zm85-348Q520-783 520-800t-11.5-28.5Q497-840 480-840t-28.5 11.5Q440-817 440-800t11.5 28.5Q463-760 480-760t28.5-11.5ZM682-480l-68-120 68-120h136l68 120-68 120H682Zm46-80h44l22-40-22-40h-44l-22 40 22 40Zm-508-60Zm260-180Zm270 200Z"/></svg>