<?xml version="1.0" encoding="iso-8859-1"?>
<!-- Generator: Adobe Illustrator 19.0.0, SVG Export Plug-In . SVG Version: 6.00 Build 0)  -->
<svg version="1.1" id="Capa_1" xmlns="http://www.w3.org/2000/svg" xmlns:xlink="http://www.w3.org/1999/xlink" x="0px" y="0px"
	 viewBox="0 0 512 512" style="enable-background:new 0 0 512 512;" xml:space="preserve">
<path id="SVGCleanerId_0" style="fill:#FAFAFA;" d="M160,341.333H74.667c-5.891,0-10.667-4.776-10.667-10.667
	C64,324.776,68.776,320,74.667,320H160c5.891,0,10.667,4.776,10.667,10.667C170.667,336.558,165.891,341.333,160,341.333z"/>
<path style="fill:#FAFAFA;" d="M117.333,384c-5.891,0-10.667-4.776-10.667-10.667V288c0-5.891,4.776-10.667,10.667-10.667
	S128,282.109,128,288v85.333C128,379.224,123.224,384,117.333,384z"/>
<path style="fill:#CFD8DC;" d="M458.667,64H160c-29.455,0-53.333,23.878-53.333,53.333v213.333c0,5.891,4.776,10.667,10.667,10.667
	h341.333C488.122,341.333,512,317.455,512,288V117.333C512,87.878,488.122,64,458.667,64z"/>
<circle style="fill:#4CAF50;" cx="117.333" cy="330.667" r="117.333"/>
<path style="fill:#FFC107;" d="M384,234.667c0.012-6.037,2.615-11.778,7.147-15.765c4.371-3.949,4.713-10.694,0.764-15.066
	c-0.241-0.267-0.496-0.522-0.764-0.764c-17.455-15.83-44.438-14.512-60.268,2.943c-15.83,17.455-14.512,44.438,2.943,60.268
	c16.263,14.748,41.063,14.748,57.325,0c4.371-3.949,4.713-10.694,0.764-15.066c-0.241-0.267-0.496-0.522-0.764-0.764
	C386.609,246.461,384.006,240.711,384,234.667z"/>
<circle style="fill:#455A64;" cx="405.333" cy="240.341" r="42.667"/>
<g>
	<path style="fill:#90A4AE;" d="M202.667,149.333h-21.333c-5.891,0-10.667-4.776-10.667-10.667S175.442,128,181.333,128h21.333
		c5.891,0,10.667,4.776,10.667,10.667S208.558,149.333,202.667,149.333z"/>
	<path style="fill:#90A4AE;" d="M266.667,149.333h-21.333c-5.891,0-10.667-4.776-10.667-10.667S239.442,128,245.333,128h21.333
		c5.891,0,10.667,4.776,10.667,10.667S272.558,149.333,266.667,149.333z"/>
	<path style="fill:#90A4AE;" d="M330.667,149.333h-21.333c-5.891,0-10.667-4.776-10.667-10.667S303.442,128,309.333,128h21.333
		c5.891,0,10.667,4.776,10.667,10.667S336.558,149.333,330.667,149.333z"/>
	<path style="fill:#90A4AE;" d="M394.667,149.333h-21.333c-5.891,0-10.667-4.776-10.667-10.667S367.442,128,373.333,128h21.333
		c5.891,0,10.667,4.776,10.667,10.667S400.558,149.333,394.667,149.333z"/>
	<path style="fill:#90A4AE;" d="M288,213.333h-85.333c-5.891,0-10.667-4.776-10.667-10.667S196.776,192,202.667,192H288
		c5.891,0,10.667,4.776,10.667,10.667S293.891,213.333,288,213.333z"/>
	<path style="fill:#90A4AE;" d="M288,277.333h-21.333c-5.891,0-10.667-4.776-10.667-10.667c0-5.891,4.776-10.667,10.667-10.667H288
		c5.891,0,10.667,4.776,10.667,10.667C298.667,272.558,293.891,277.333,288,277.333z"/>
</g>
<g>
	<path id="SVGCleanerId_0_1_" style="fill:#FAFAFA;" d="M160,341.333H74.667c-5.891,0-10.667-4.776-10.667-10.667
		C64,324.776,68.776,320,74.667,320H160c5.891,0,10.667,4.776,10.667,10.667C170.667,336.558,165.891,341.333,160,341.333z"/>
</g>
<path style="fill:#FAFAFA;" d="M128,288v85.333c0,5.891-4.776,10.667-10.667,10.667s-10.667-4.776-10.667-10.667V288
	c0-5.891,4.776-10.667,10.667-10.667S128,282.109,128,288z"/>
<g>
</g>
<g>
</g>
<g>
</g>
<g>
</g>
<g>
</g>
<g>
</g>
<g>
</g>
<g>
</g>
<g>
</g>
<g>
</g>
<g>
</g>
<g>
</g>
<g>
</g>
<g>
</g>
<g>
</g>
</svg>
